<svg xmlns="http://www.w3.org/2000/svg" viewBox="0 0 32 32" width="32" height="32"><radialGradient id="a" cx="16" cy="16" r="16" gradientUnits="userSpaceOnUse"><stop offset="0%" stop-color="#fdf497"/><stop offset="45%" stop-color="#fdf497"/><stop offset="60%" stop-color="#fd5949"/><stop offset="90%" stop-color="#d6249f"/><stop offset="100%" stop-color="#285AEB"/></radialGradient><rect width="32" height="32" rx="7" fill="url(#a)"/><path d="M16 10.667A5.333 5.333 0 1 0 16 21.333a5.333 5.333 0 0 0 0-10.666zm0 8.8a3.467 3.467 0 1 1 0-6.934 3.467 3.467 0 0 1 0 6.934zm6.933-8.933a1.2 1.2 0 1 1-2.4 0 1.2 1.2 0 0 1 2.4 0zM24 8.8a4.8 4.8 0 0 0-4.8-4.8H12.8A4.8 4.8 0 0 0 8 8.8v6.4a4.8 4.8 0 0 0 4.8 4.8h6.4a4.8 4.8 0 0 0 4.8-4.8V8.8zm-1.6 6.4a3.2 3.2 0 0 1-3.2 3.2h-6.4a3.2 3.2 0 0 1-3.2-3.2v-6.4a3.2 3.2 0 0 1 3.2-3.2h6.4a3.2 3.2 0 0 1 3.2 3.2v6.4z" fill="#fff"/></svg> 