<svg xmlns="http://www.w3.org/2000/svg" viewBox="0 0 32 32" width="32" height="32"><rect width="32" height="32" rx="6" fill="#E60023"/><path d="M16 8.667c-3.98 0-7.2 3.22-7.2 7.2 0 2.98 1.98 5.2 4.7 5.2 1.02 0 1.98-.34 2.3-1.12.32-.76.2-1.9.38-2.7.13-.54.42-2.2.42-2.2s-.1-.2-.1-.5c0-.46.27-.8.62-.8.29 0 .43.22.43.48 0 .29-.18.72-.28 1.12-.08.34.17.62.5.62 1.02 0 1.8-1.08 1.8-2.62 0-2.16-1.57-3.78-3.8-3.78-2.6 0-4.13 1.95-4.13 4.1 0 .82.32 1.7.72 2.18.08.1.09.19.07.29-.08.32-.25 1.02-.28 1.16-.04.18-.14.22-.32.13-1.2-.56-1.95-2.3-1.95-3.7 0-3.02 2.2-5.8 6.36-5.8 3.34 0 5.94 2.38 5.94 5.56 0 3.34-2.1 6.02-5.02 6.02-1.01 0-1.96-.53-2.29-1.13l-.62 2.36c-.18.7-.54 1.57-.8 2.1.6.18 1.24.28 1.9.28 3.98 0 7.2-3.22 7.2-7.2 0-3.98-3.22-7.2-7.2-7.2z" fill="#fff"/></svg> 