<svg xmlns="http://www.w3.org/2000/svg" viewBox="0 0 32 32" width="32" height="32"><rect width="32" height="32" rx="6" fill="#000"/><path d="M22.667 13.333c-1.84 0-3.333-1.493-3.333-3.333V6.667h-2.667v13.333a2 2 0 1 1-2-2c.18 0 .36.02.533.06v-2.68a4.667 4.667 0 1 0 4.667 4.667V13.6c.8.44 1.72.733 2.667.733v-2z" fill="#fff"/><path d="M19.334 6.667V10c0 1.84 1.493 3.333 3.333 3.333v-2c-.8 0-1.493-.693-1.493-1.493V6.667h-1.84z" fill="#25F4EE"/><path d="M19.334 6.667V10c0 1.84 1.493 3.333 3.333 3.333v-2c-.8 0-1.493-.693-1.493-1.493V6.667h-1.84z" fill="#FE2C55"/></svg> 