<svg xmlns="http://www.w3.org/2000/svg" viewBox="0 0 32 32" width="32" height="32"><rect width="32" height="32" rx="6" fill="#1DA1F2"/><path d="M26.67 10.67c-.6.27-1.25.45-1.93.53a3.37 3.37 0 0 0 1.48-1.86 6.7 6.7 0 0 1-2.13.82 3.34 3.34 0 0 0-5.7 3.04A9.48 9.48 0 0 1 8.13 9.6a3.34 3.34 0 0 0 1.03 4.46c-.56-.02-1.09-.17-1.56-.43v.04a3.34 3.34 0 0 0 2.68 3.28c-.27.07-.56.11-.85.11-.21 0-.41-.02-.61-.06a3.34 3.34 0 0 0 3.12 2.32A6.7 6.7 0 0 1 6 23.07c-.44 0-.87-.03-1.3-.08a9.48 9.48 0 0 0 5.13 1.5c6.15 0 9.52-5.1 9.52-9.52 0-.14 0-.28-.01-.42.65-.47 1.22-1.06 1.67-1.73z" fill="#fff"/></svg> 